{
  "accessors": [
    {
      "bufferView": 2,
      "componentType": 5126,
      "count": 16953,
      "max": [
        0.904925525188446,
        0.8851771354675293,
        0.8906410932540894
      ],
      "min": [
        -0.8985620737075806,
        -0.8646595478057861,
        -0.94321608543396
      ],
      "type": "VEC3"
    },
    {
      "bufferView": 2,
      "byteOffset": 203436,
      "componentType": 5126,
      "count": 16953,
      "max": [
        0.999748706817627,
        0.9999246597290039,
        0.9999934434890747
      ],
      "min": [
        -0.9998465776443481,
        -0.9997417330741882,
        -0.9998947381973267
      ],
      "type": "VEC3"
    },
    {
      "bufferView": 3,
      "componentType": 5126,
      "count": 16953,
      "max": [
        0.9997586607933044,
        0.9999083876609802,
        0.9995626211166382,
        1.0
      ],
      "min": [
        -0.9999773502349854,
        -0.9994139671325684,
        -0.9991673231124878,
        -1.0
      ],
      "type": "VEC4"
    },
    {
      "bufferView": 1,
      "componentType": 5126,
      "count": 16953,
      "max": [
        0.997421383857727,
        0.9974835515022278
      ],
      "min": [
        0.0025229323655366898,
        0.002593994140625
      ],
      "type": "VEC2"
    },
    {
      "bufferView": 1,
      "byteOffset": 135624,
      "componentType": 5126,
      "count": 16953,
      "max": [
        0.997421383857727,
        0.9974835515022278
      ],
      "min": [
        0.0025229323655366898,
        0.002593994140625
      ],
      "type": "VEC2"
    },
    {
      "bufferView": 0,
      "componentType": 5125,
      "count": 70428,
      "type": "SCALAR"
    }
  ],
  "asset": {
    "extras": {
      "author": "Game Piggd (https://sketchfab.com/GamePiggs)",
      "license": "CC-BY-4.0 (http://creativecommons.org/licenses/by/4.0/)",
      "source": "https://sketchfab.com/3d-models/asteroid-1d-crystal-free-game-model-7908338cfd8f4daa98fdba326dc48dd2",
      "title": "Asteroid 1d Crystal 💎 FREE Game Model"
    },
    "generator": "Sketchfab-16.16.0",
    "version": "2.0"
  },
  "bufferViews": [
    {
      "buffer": 0,
      "byteLength": 281712,
      "name": "floatBufferViews",
      "target": 34963
    },
    {
      "buffer": 0,
      "byteLength": 271248,
      "byteOffset": 281712,
      "byteStride": 8,
      "name": "floatBufferViews",
      "target": 34962
    },
    {
      "buffer": 0,
      "byteLength": 406872,
      "byteOffset": 552960,
      "byteStride": 12,
      "name": "floatBufferViews",
      "target": 34962
    },
    {
      "buffer": 0,
      "byteLength": 271248,
      "byteOffset": 959832,
      "byteStride": 16,
      "name": "floatBufferViews",
      "target": 34962
    }
  ],
  "buffers": [
    {
      "byteLength": 1231080,
      "uri": "scene.bin"
    }
  ],
  "images": [
    {
      "uri": "textures/Scene_-_Root_baseColor.png"
    },
    {
      "uri": "textures/Scene_-_Root_metallicRoughness.png"
    },
    {
      "uri": "textures/Scene_-_Root_emissive.png"
    },
    {
      "uri": "textures/Scene_-_Root_normal.png"
    }
  ],
  "materials": [
    {
      "doubleSided": true,
      "emissiveFactor": [
        1.0,
        1.0,
        1.0
      ],
      "emissiveTexture": {
        "index": 2
      },
      "name": "Scene_-_Root",
      "normalTexture": {
        "index": 3,
        "scale": 0.55
      },
      "occlusionTexture": {
        "index": 1
      },
      "pbrMetallicRoughness": {
        "baseColorTexture": {
          "index": 0
        },
        "metallicRoughnessTexture": {
          "index": 1
        }
      }
    }
  ],
  "meshes": [
    {
      "name": "Object_0",
      "primitives": [
        {
          "attributes": {
            "NORMAL": 1,
            "POSITION": 0,
            "TANGENT": 2,
            "TEXCOORD_0": 3,
            "TEXCOORD_1": 4
          },
          "indices": 5,
          "material": 0,
          "mode": 4
        }
      ]
    }
  ],
  "nodes": [
    {
      "children": [
        1
      ],
      "matrix": [
        1.0,
        0.0,
        0.0,
        0.0,
        0.0,
        2.220446049250313e-16,
        -1.0,
        0.0,
        0.0,
        1.0,
        2.220446049250313e-16,
        0.0,
        0.0,
        0.0,
        0.0,
        1.0
      ],
      "name": "Sketchfab_model"
    },
    {
      "children": [
        2
      ],
      "name": "root"
    },
    {
      "children": [
        3
      ],
      "matrix": [
        1.0,
        0.0,
        0.0,
        0.0,
        0.0,
        2.220446049250313e-16,
        1.0,
        0.0,
        0.0,
        -1.0,
        2.220446049250313e-16,
        0.0,
        0.0,
        0.0,
        0.0,
        1.0
      ],
      "name": "GLTF_SceneRootNode"
    },
    {
      "children": [
        4
      ],
      "name": "Asteroid1d_Crystal_0"
    },
    {
      "mesh": 0,
      "name": "Object_4"
    }
  ],
  "samplers": [
    {
      "magFilter": 9729,
      "minFilter": 9987,
      "wrapS": 10497,
      "wrapT": 10497
    }
  ],
  "scene": 0,
  "scenes": [
    {
      "name": "Sketchfab_Scene",
      "nodes": [
        0
      ]
    }
  ],
  "textures": [
    {
      "sampler": 0,
      "source": 0
    },
    {
      "sampler": 0,
      "source": 1
    },
    {
      "sampler": 0,
      "source": 2
    },
    {
      "sampler": 0,
      "source": 3
    }
  ]
}
